<svg xmlns="http://www.w3.org/2000/svg" xmlns:xlink="http://www.w3.org/1999/xlink" id="processonSvg1000" viewBox="-22.0 4.0 1297.0 906.0" width="1297.0" height="906.0"><defs id="ProcessOnDefs1001"><marker id="ProcessOnMarker1037" markerUnits="userSpaceOnUse" orient="auto" markerWidth="16.23606797749979" markerHeight="10.550836550532098" viewBox="-1.0 -1.3763819204711736 16.23606797749979 10.550836550532098" refX="-1.0" refY="3.8990363547948754"><path id="ProcessOnPath1038" d="M12.0 3.8990363547948754L0.0 7.798072709589751V0.0Z" stroke="#323232" stroke-width="2.0" fill="#323232" transform="matrix(1.0,0.0,0.0,1.0,0.0,0.0)"/></marker><marker id="ProcessOnMarker1044" markerUnits="userSpaceOnUse" orient="auto" markerWidth="16.23606797749979" markerHeight="10.550836550532098" viewBox="-1.0 -1.3763819204711736 16.23606797749979 10.550836550532098" refX="-1.0" refY="3.8990363547948754"><path id="ProcessOnPath1045" d="M12.0 3.8990363547948754L0.0 7.798072709589751V0.0Z" stroke="#323232" stroke-width="2.0" fill="#323232" transform="matrix(1.0,0.0,0.0,1.0,0.0,0.0)"/></marker><marker id="ProcessOnMarker1051" markerUnits="userSpaceOnUse" orient="auto" markerWidth="16.23606797749979" markerHeight="10.550836550532098" viewBox="-1.0 -1.3763819204711736 16.23606797749979 10.550836550532098" refX="-1.0" refY="3.8990363547948754"><path id="ProcessOnPath1052" d="M12.0 3.8990363547948754L0.0 7.798072709589751V0.0Z" stroke="#323232" stroke-width="2.0" fill="#323232" transform="matrix(1.0,0.0,0.0,1.0,0.0,0.0)"/></marker><marker id="ProcessOnMarker1058" markerUnits="userSpaceOnUse" orient="auto" markerWidth="16.23606797749979" markerHeight="10.550836550532098" viewBox="-1.0 -1.3763819204711736 16.23606797749979 10.550836550532098" refX="-1.0" refY="3.8990363547948754"><path id="ProcessOnPath1059" d="M12.0 3.8990363547948754L0.0 7.798072709589751V0.0Z" stroke="#323232" stroke-width="2.0" fill="#323232" transform="matrix(1.0,0.0,0.0,1.0,0.0,0.0)"/></marker><marker id="ProcessOnMarker1065" markerUnits="userSpaceOnUse" orient="auto" markerWidth="16.23606797749979" markerHeight="10.550836550532098" viewBox="-1.0 -1.3763819204711736 16.23606797749979 10.550836550532098" refX="-1.0" refY="3.8990363547948754"><path id="ProcessOnPath1066" d="M12.0 3.8990363547948754L0.0 7.798072709589751V0.0Z" stroke="#323232" stroke-width="2.0" fill="#323232" transform="matrix(1.0,0.0,0.0,1.0,0.0,0.0)"/></marker><marker id="ProcessOnMarker1072" markerUnits="userSpaceOnUse" orient="auto" markerWidth="16.23606797749979" markerHeight="10.550836550532098" viewBox="-1.0 -1.3763819204711736 16.23606797749979 10.550836550532098" refX="-1.0" refY="3.8990363547948754"><path id="ProcessOnPath1073" d="M12.0 3.8990363547948754L0.0 7.798072709589751V0.0Z" stroke="#323232" stroke-width="2.0" fill="#323232" transform="matrix(1.0,0.0,0.0,1.0,0.0,0.0)"/></marker><marker id="ProcessOnMarker1079" markerUnits="userSpaceOnUse" orient="auto" markerWidth="16.23606797749979" markerHeight="10.550836550532098" viewBox="-1.0 -1.3763819204711736 16.23606797749979 10.550836550532098" refX="-1.0" refY="3.8990363547948754"><path id="ProcessOnPath1080" d="M12.0 3.8990363547948754L0.0 7.798072709589751V0.0Z" stroke="#323232" stroke-width="2.0" fill="#323232" transform="matrix(1.0,0.0,0.0,1.0,0.0,0.0)"/></marker><marker id="ProcessOnMarker1091" markerUnits="userSpaceOnUse" orient="auto" markerWidth="16.23606797749979" markerHeight="10.550836550532098" viewBox="-1.0 -1.3763819204711736 16.23606797749979 10.550836550532098" refX="-1.0" refY="3.8990363547948754"><path id="ProcessOnPath1092" d="M12.0 3.8990363547948754L0.0 7.798072709589751V0.0Z" stroke="#323232" stroke-width="2.0" fill="#323232" transform="matrix(1.0,0.0,0.0,1.0,0.0,0.0)"/></marker></defs><g id="ProcessOnG1002"><path id="ProcessOnPath1003" d="M-22.0 4.0H1275.0V910.0H-22.0V4.0Z" fill="none"/><g id="ProcessOnG1004"><g id="ProcessOnG1005" transform="matrix(1.0,0.0,0.0,1.0,325.0,369.0233264497688)" opacity="1.0"><path id="ProcessOnPath1006" d="M0.0 0.0L232.0 0.0L232.0 195.97667355023123L0.0 195.97667355023123Z" stroke="#323232" stroke-width="2.0" stroke-dasharray="none" opacity="1.0" fill="#ffffff"/><g id="ProcessOnG1007" transform="matrix(1.0,0.0,0.0,1.0,10.0,85.48833677511561)"><text id="ProcessOnText1008" fill="#000000" font-size="20" x="0.0" y="20.5" font-family="微软雅黑" font-weight="bold" font-style="normal" text-decoration="none" family="微软雅黑" text-anchor="start" size="20">代理服务器</text></g></g><g id="ProcessOnG1009" transform="matrix(1.0,0.0,0.0,1.0,687.5595984943538,369.0233264497688)" opacity="1.0"><path id="ProcessOnPath1010" d="M0.0 0.0L256.44040150564615 0.0L256.44040150564615 195.97667355023123L0.0 195.97667355023123Z" stroke="#323232" stroke-width="2.0" stroke-dasharray="none" opacity="1.0" fill="#ffffff"/><g id="ProcessOnG1011" transform="matrix(1.0,0.0,0.0,1.0,10.0,84.86333677511561)"><text id="ProcessOnText1012" fill="#000000" font-size="21" x="234.44040150564615" y="21.525" font-family="微软雅黑" font-weight="bold" font-style="normal" text-decoration="none" family="微软雅黑" text-anchor="end" size="21">客户端</text></g></g><g id="ProcessOnG1013" transform="matrix(1.0,0.0,0.0,1.0,425.1718946047679,375.2745701327751)" opacity="1.0"><path id="ProcessOnPath1014" d="M0.0 0.0L111.03387703889587 0.0L111.03387703889587 54.69838222630505L0.0 54.69838222630505Z" stroke="#323232" stroke-width="2.0" stroke-dasharray="none" opacity="1.0" fill="#ffffff"/><g id="ProcessOnG1015" transform="matrix(1.0,0.0,0.0,1.0,10.0,11.099191113152525)"><text id="ProcessOnText1016" fill="#000000" font-size="13" x="44.51693851944793" y="13.325" font-family="微软雅黑" font-weight="normal" font-style="normal" text-decoration="none" family="微软雅黑" text-anchor="middle" size="13">server_proxy_</text><text id="ProcessOnText1017" fill="#000000" font-size="13" x="44.51693851944793" y="29.575" font-family="微软雅黑" font-weight="normal" font-style="normal" text-decoration="none" family="微软雅黑" text-anchor="middle" size="13">handle</text></g></g><g id="ProcessOnG1018" transform="matrix(1.0,0.0,0.0,1.0,425.1718946047679,487.55457521753533)" opacity="1.0"><path id="ProcessOnPath1019" d="M0.0 0.0L111.03387703889587 0.0L111.03387703889587 54.69838222630505L0.0 54.69838222630505Z" stroke="#323232" stroke-width="2.0" stroke-dasharray="none" opacity="1.0" fill="#ffffff"/><g id="ProcessOnG1020" transform="matrix(1.0,0.0,0.0,1.0,10.0,19.224191113152525)"><text id="ProcessOnText1021" fill="#000000" font-size="13" x="44.51693851944793" y="13.325" font-family="微软雅黑" font-weight="normal" font-style="normal" text-decoration="none" family="微软雅黑" text-anchor="middle" size="13">user_handle</text></g></g><g id="ProcessOnG1022" transform="matrix(1.0,0.0,0.0,1.0,698.8895859473023,375.2745701327751)" opacity="1.0"><path id="ProcessOnPath1023" d="M0.0 0.0L109.52321204516939 0.0L109.52321204516939 54.69838222630505L0.0 54.69838222630505Z" stroke="#323232" stroke-width="2.0" stroke-dasharray="none" opacity="1.0" fill="#ffffff"/><g id="ProcessOnG1024" transform="matrix(1.0,0.0,0.0,1.0,10.0,11.099191113152525)"><text id="ProcessOnText1025" fill="#000000" font-size="13" x="43.761606022584694" y="13.325" font-family="微软雅黑" font-weight="normal" font-style="normal" text-decoration="none" family="微软雅黑" text-anchor="middle" size="13">client_proxy_</text><text id="ProcessOnText1026" fill="#000000" font-size="13" x="43.761606022584694" y="29.575" font-family="微软雅黑" font-weight="normal" font-style="normal" text-decoration="none" family="微软雅黑" text-anchor="middle" size="13">handle</text></g></g><g id="ProcessOnG1027" transform="matrix(1.0,0.0,0.0,1.0,698.8895859473023,490.2894943288506)" opacity="1.0"><path id="ProcessOnPath1028" d="M0.0 0.0L109.52321204516939 0.0L109.52321204516939 49.228544003674536L0.0 49.228544003674536Z" stroke="#323232" stroke-width="2.0" stroke-dasharray="none" opacity="1.0" fill="#ffffff"/><g id="ProcessOnG1029" transform="matrix(1.0,0.0,0.0,1.0,10.0,16.489272001837268)"><text id="ProcessOnText1030" fill="#000000" font-size="13" x="43.761606022584694" y="13.325" font-family="微软雅黑" font-weight="normal" font-style="normal" text-decoration="none" family="微软雅黑" text-anchor="middle" size="13">real_server</text></g></g><g id="ProcessOnG1031" transform="matrix(1.0,0.0,0.0,1.0,437.92220828105394,583.9297269812107)" opacity="1.0"><path id="ProcessOnPath1032" d="M13.023424339596438 0.0L62.509825346727276 0.0C79.87439113285586 0.0 79.87439113285586 39.070273018789315 62.509825346727276 39.070273018789315L13.023424339596438 39.070273018789315C-4.341141446532146 39.070273018789315 -4.341141446532146 0.0 13.023424339596438 0.0Z" stroke="#323232" stroke-width="2.0" stroke-dasharray="none" opacity="1.0" fill="#ffffff"/><g id="ProcessOnG1033" transform="matrix(1.0,0.0,0.0,1.0,10.0,11.410136509394658)"><text id="ProcessOnText1034" fill="#000000" font-size="13" x="26.766624843161857" y="13.325" font-family="微软雅黑" font-weight="normal" font-style="normal" text-decoration="none" family="微软雅黑" text-anchor="middle" size="13">用户</text></g></g><g id="ProcessOnG1035"><path id="ProcessOnPath1036" d="M475.6888331242158 583.9297269812107L475.6888331242158 563.0913422125257L480.6888331242158 563.0913422125257L480.6888331242158 557.4890254213403" stroke="#323232" stroke-width="2.0" stroke-dasharray="none" fill="none" marker-end="url(#ProcessOnMarker1037)"/><g id="ProcessOnG1039" transform="matrix(1.0,0.0,0.0,1.0,475.6888331242158,560.0843762012755)"><path id="ProcessOnPath1040" d="M0 0H8.0V16.25H0Z" fill="#fff" transform="matrix(1.0,0.0,0.0,1.0,-4.0,0.0)"/><text id="ProcessOnText1041" fill="#000000" font-size="13" x="0.0" y="13.325" font-family="微软雅黑" font-weight="normal" font-style="normal" text-decoration="none" family="微软雅黑" text-anchor="middle" size="13">1</text></g></g><g id="ProcessOnG1042"><path id="ProcessOnPath1043" d="M536.2057716436638 514.903766330688L566.2057716436638 514.903766330688L566.2057716436638 353.2745701327751L753.6511919698871 353.2745701327751L753.6511919698871 360.03850215527535" stroke="#323232" stroke-width="2.0" stroke-dasharray="none" fill="none" marker-end="url(#ProcessOnMarker1044)"/><g id="ProcessOnG1046" transform="matrix(1.0,0.0,0.0,1.0,567.4958497190692,345.1495701327751)"><path id="ProcessOnPath1047" d="M0 0H8.0V16.25H0Z" fill="#fff" transform="matrix(1.0,0.0,0.0,1.0,-4.0,0.0)"/><text id="ProcessOnText1048" fill="#000000" font-size="13" x="0.0" y="13.325" font-family="微软雅黑" font-weight="normal" font-style="normal" text-decoration="none" family="微软雅黑" text-anchor="middle" size="13">2</text></g></g><g id="ProcessOnG1049"><path id="ProcessOnPath1050" d="M808.4127979924717 514.9037663306879L838.4127979924717 514.9037663306879L838.4127979924717 345.2745701327751L480.6888331242158 345.2745701327751L480.6888331242158 360.03850215527535" stroke="#323232" stroke-width="2.0" stroke-dasharray="none" fill="none" marker-end="url(#ProcessOnMarker1051)"/><g id="ProcessOnG1053" transform="matrix(1.0,0.0,0.0,1.0,751.9834476460501,337.1495701327751)"><path id="ProcessOnPath1054" d="M0 0H8.0V16.25H0Z" fill="#fff" transform="matrix(1.0,0.0,0.0,1.0,-4.0,0.0)"/><text id="ProcessOnText1055" fill="#000000" font-size="13" x="0.0" y="13.325" font-family="微软雅黑" font-weight="normal" font-style="normal" text-decoration="none" family="微软雅黑" text-anchor="middle" size="13">4</text></g></g><g id="ProcessOnG1056"><path id="ProcessOnPath1057" d="M425.1718946047679 402.62376124592765L395.1718946047679 402.62376124592765L395.1718946047679 603.4648634906054L422.68614030355417 603.4648634906054" stroke="#323232" stroke-width="2.0" stroke-dasharray="none" fill="none" marker-end="url(#ProcessOnMarker1058)"/><g id="ProcessOnG1060" transform="matrix(1.0,0.0,0.0,1.0,395.1718946047679,493.6764352176597)"><path id="ProcessOnPath1061" d="M0 0H8.0V16.25H0Z" fill="#fff" transform="matrix(1.0,0.0,0.0,1.0,-4.0,0.0)"/><text id="ProcessOnText1062" fill="#000000" font-size="13" x="0.0" y="13.325" font-family="微软雅黑" font-weight="normal" font-style="normal" text-decoration="none" family="微软雅黑" text-anchor="middle" size="13">5</text></g></g><g id="ProcessOnG1063"><path id="ProcessOnPath1064" d="M536.2057716436638 402.62376124592765L617.5476787954831 402.62376124592765L617.5476787954831 402.62376124592765L683.6535179698025 402.62376124592765" stroke="#323232" stroke-width="2.0" stroke-dasharray="none" fill="none" marker-end="url(#ProcessOnMarker1065)"/><g id="ProcessOnG1067" transform="matrix(1.0,0.0,0.0,1.0,609.9296448067331,394.49876124592765)"><path id="ProcessOnPath1068" d="M0 0H65.0V16.25H0Z" fill="#fff" transform="matrix(1.0,0.0,0.0,1.0,-32.5,0.0)"/><text id="ProcessOnText1069" fill="#ff3333" font-size="13" x="0.0" y="13.325" font-family="微软雅黑" font-weight="normal" font-style="normal" text-decoration="none" family="微软雅黑" text-anchor="middle" size="13">connected</text></g></g><g id="ProcessOnG1070"><path id="ProcessOnPath1071" d="M698.8895859473023 402.62376124592765L617.5476787954831 402.62376124592765L617.5476787954831 402.62376124592765L551.4418396211636 402.62376124592765" stroke="#323232" stroke-width="2.0" stroke-dasharray="none" fill="none" marker-end="url(#ProcessOnMarker1072)"/><g id="ProcessOnG1074" transform="matrix(1.0,0.0,0.0,1.0,625.1657127842329,394.49876124592765)"><path id="ProcessOnPath1075" d="M0 0H65.0V16.25H0Z" fill="#fff" transform="matrix(1.0,0.0,0.0,1.0,-32.5,0.0)"/><text id="ProcessOnText1076" fill="#000000" font-size="13" x="0.0" y="13.325" font-family="微软雅黑" font-weight="normal" font-style="normal" text-decoration="none" family="微软雅黑" text-anchor="middle" size="13">connected</text></g></g><g id="ProcessOnG1077"><path id="ProcessOnPath1078" d="M753.651191969887 429.9729523590802L753.651191969887 460.1312233439654L753.651191969887 460.1312233439654L753.651191969887 475.0534263513508" stroke="#323232" stroke-width="2.0" stroke-dasharray="none" fill="none" marker-end="url(#ProcessOnMarker1079)"/><g id="ProcessOnG1081" transform="matrix(1.0,0.0,0.0,1.0,753.651191969887,444.3881893552155)"><path id="ProcessOnPath1082" d="M0 0H8.0V16.25H0Z" fill="#fff" transform="matrix(1.0,0.0,0.0,1.0,-4.0,0.0)"/><text id="ProcessOnText1083" fill="#000000" font-size="13" x="0.0" y="13.325" font-family="微软雅黑" font-weight="normal" font-style="normal" text-decoration="none" family="微软雅黑" text-anchor="middle" size="13">3</text></g></g><g id="ProcessOnG1084" transform="matrix(1.0,0.0,0.0,1.0,251.92220828105394,142.0)" opacity="1.0"><path id="ProcessOnPath1085" d="M24.84 105.69999999999999C-20.700000000000003 75.5 8.28 52.849999999999994 18.63 45.3C14.490000000000002 7.550000000000001 66.24 0.0 86.94 15.100000000000001C103.5 -7.550000000000001 155.25 0.0 155.25 22.65C196.64999999999998 15.100000000000001 213.21 45.3 196.64999999999998 83.05000000000001C211.14000000000001 113.25 196.64999999999998 151.0 149.04 135.9C138.69 155.53 97.28999999999999 155.53 86.94 135.9C66.24 151.0 24.84 143.45 24.84 105.69999999999999Z" stroke="#323232" stroke-width="2.0" stroke-dasharray="none" opacity="1.0" fill="#ffffff"/><g id="ProcessOnG1086" transform="matrix(1.0,0.0,0.0,1.0,10.0,59.25)"><text id="ProcessOnText1087" fill="#000000" font-size="13" x="92.5" y="13.325" font-family="微软雅黑" font-weight="normal" font-style="normal" text-decoration="none" family="微软雅黑" text-anchor="middle" size="13">server_channel_manager</text><text id="ProcessOnText1088" fill="#000000" font-size="13" x="92.5" y="29.575" font-family="微软雅黑" font-weight="normal" font-style="normal" text-decoration="none" family="微软雅黑" text-anchor="middle" size="13">client_auth_manager</text></g></g><g id="ProcessOnG1089"><path id="ProcessOnPath1090" d="M441.0 369.0233264497688L441.0 331.0116632248844L369.91220828105395 331.0116632248844L369.91220828105395 308.2360679774998" stroke="#323232" stroke-width="2.0" stroke-dasharray="none" fill="none" marker-end="url(#ProcessOnMarker1091)"/></g><g id="ProcessOnG1093" transform="matrix(1.0,0.0,0.0,1.0,325.0,672.0)" opacity="1.0"><path id="ProcessOnPath1094" d="M0.0 0.0L455.0 0.0L455.0 218.0L0.0 218.0Z" stroke="#323232" stroke-width="2.0" stroke-dasharray="none" opacity="1.0" fill="#ffffff"/><g id="ProcessOnG1095" transform="matrix(1.0,0.0,0.0,1.0,10.0,0.0)"><text id="ProcessOnText1096" fill="#000000" font-size="13" x="0.0" y="13.325" font-family="微软雅黑" font-weight="normal" font-style="normal" text-decoration="none" family="微软雅黑" text-anchor="start" size="13">ps:</text><text id="ProcessOnText1097" fill="#000000" font-size="13" x="0.0" y="29.575" font-family="微软雅黑" font-weight="normal" font-style="normal" text-decoration="none" family="微软雅黑" text-anchor="start" size="13">1、用户发送请求到代理服务器，user_handle进行用户请求的处理，将请求</text><text id="ProcessOnText1098" fill="#000000" font-size="13" x="0.0" y="45.825" font-family="微软雅黑" font-weight="normal" font-style="normal" text-decoration="none" family="微软雅黑" text-anchor="start" size="13">消息进行封装打包；</text><text id="ProcessOnText1099" fill="#000000" font-size="13" x="0.0" y="62.075" font-family="微软雅黑" font-weight="normal" font-style="normal" text-decoration="none" family="微软雅黑" text-anchor="start" size="13">2、user_handle将已经封装好的消息发送到客户端client_proxy_handle, cp</text><text id="ProcessOnText1100" fill="#000000" font-size="13" x="0.0" y="78.325" font-family="微软雅黑" font-weight="normal" font-style="normal" text-decoration="none" family="微软雅黑" text-anchor="start" size="13">h解码消息体;</text><text id="ProcessOnText1101" fill="#000000" font-size="13" x="0.0" y="94.575" font-family="微软雅黑" font-weight="normal" font-style="normal" text-decoration="none" family="微软雅黑" text-anchor="start" size="13">3、cph将解码的消息转发到real_server,rs进行处理；</text><text id="ProcessOnText1102" fill="#000000" font-size="13" x="0.0" y="110.825" font-family="微软雅黑" font-weight="normal" font-style="normal" text-decoration="none" family="微软雅黑" text-anchor="start" size="13">4、rs将响应消息进行打包封装，并响应到代理服务器的server_proxy_hand</text><text id="ProcessOnText1103" fill="#000000" font-size="13" x="0.0" y="127.075" font-family="微软雅黑" font-weight="normal" font-style="normal" text-decoration="none" family="微软雅黑" text-anchor="start" size="13">le；</text><text id="ProcessOnText1104" fill="#000000" font-size="13" x="0.0" y="143.325" font-family="微软雅黑" font-weight="normal" font-style="normal" text-decoration="none" family="微软雅黑" text-anchor="start" size="13">5、sph将响应消息解码并响应给用户；</text></g></g><g id="ProcessOnG1105" transform="matrix(1.0,0.0,0.0,1.0,-2.0,24.0)" opacity="1.0"><path id="ProcessOnPath1106" d="M0.0 0.0L1257.0 0.0L1257.0 107.0L0.0 107.0Z" stroke="#323232" stroke-width="2.0" stroke-dasharray="none" opacity="1.0" fill="#ffffff"/><g id="ProcessOnG1107" transform="matrix(1.0,0.0,0.0,1.0,10.0,32.25)"><text id="ProcessOnText1108" fill="#000000" font-size="34" x="617.5" y="34.85" font-family="微软雅黑" font-weight="bold" font-style="normal" text-decoration="none" family="微软雅黑" text-anchor="middle" size="34">代理转发核心流程</text></g></g></g></g></svg>